<svg id="visual" viewBox="0 0 900 600" width="900" height="600" xmlns="http://www.w3.org/2000/svg" xmlns:xlink="http://www.w3.org/1999/xlink" version="1.1"><rect x="0" y="0" width="900" height="600" fill="#FFF"></rect><g transform="translate(455.50435537087833 289.6617428331885)"><path d="M142.1 -166C187.7 -131 230.7 -89.6 243.6 -39.6C256.4 10.5 239.1 69.2 208.5 118.6C177.9 168 134.1 208.1 80.7 232C27.2 255.9 -35.8 263.7 -84.5 241.8C-133.2 219.9 -167.5 168.2 -200.2 114.2C-233 60.3 -264.2 4.1 -258.1 -48.1C-252 -100.4 -208.6 -148.6 -159.4 -182.9C-110.1 -217.2 -55.1 -237.6 -3.4 -233.5C48.2 -229.5 96.4 -200.9 142.1 -166" fill="#ddcfd3"></path></g></svg>