<svg id="visual" viewBox="0 0 900 600" width="900" height="600" xmlns="http://www.w3.org/2000/svg" xmlns:xlink="http://www.w3.org/1999/xlink" version="1.1"><rect x="0" y="0" width="900" height="600" fill="#FFF"></rect><g transform="translate(447.5937491140602 283.7318144973724)"><path d="M148.2 -164.2C197.5 -135.3 246.5 -93.7 258.5 -43C270.6 7.8 245.7 67.6 211.6 117.8C177.4 168 134 208.5 81.4 230.8C28.7 253.1 -33.2 257.2 -90.9 240.2C-148.5 223.3 -202 185.4 -230.5 134.1C-259 82.7 -262.4 17.9 -249.9 -42.5C-237.5 -103 -209 -159.1 -164.7 -188.8C-120.4 -218.5 -60.2 -221.8 -5.4 -215.4C49.5 -209 99 -193 148.2 -164.2" fill="#e7dff3"></path></g></svg>